<svg xmlns="http://www.w3.org/2000/svg" width="2000" height="1250" aria-label="HeyClaude Raycast extension search view" viewBox="0 0 2000 1250"><path fill="#101113" d="M0 0h2000v1250H0z"/><rect width="1420" height="960" x="290" y="145" fill="#181a1f" stroke="#2f333b" stroke-width="2" rx="32"/><rect width="1340" height="72" x="330" y="190" fill="#0f1115" stroke="#323743" rx="18"/><text x="370" y="237" fill="#f8fafc" font-family="Inter, Arial, sans-serif" font-size="30" font-weight="700">Search HeyClaude</text><text x="1510" y="237" fill="#9ca3af" font-family="Inter, Arial, sans-serif" font-size="24">MCP Servers</text><g font-family="Inter, Arial, sans-serif"><rect width="600" height="94" x="330" y="305" fill="#20232b" rx="18"/><text x="370" y="344" fill="#fff" font-size="26" font-weight="700">Airtable MCP Server</text><text x="370" y="376" fill="#9ca3af" font-size="20">Copy install, config, or full asset</text><rect width="670" height="650" x="960" y="305" fill="#111318" stroke="#2f333b" rx="20"/><text x="1000" y="355" fill="#fff" font-size="32" font-weight="800">Airtable MCP Server</text><text x="1000" y="407" fill="#cbd5e1" font-size="22">Category: MCP Servers</text><text x="1000" y="459" fill="#cbd5e1" font-size="22">Verification: production</text><text x="1000" y="535" fill="#fff" font-size="26" font-weight="700">Install</text><rect width="570" height="70" x="1000" y="560" fill="#05070a" stroke="#2f333b" rx="14"/><text x="1025" y="604" fill="#a7f3d0" font-family="Menlo, monospace" font-size="22">npx -y airtable-mcp-server</text><text x="1000" y="700" fill="#fff" font-size="26" font-weight="700">Actions</text><text x="1000" y="745" fill="#cbd5e1" font-size="22">Copy Full Asset · Copy Install Command · Copy Config</text><text x="1000" y="790" fill="#cbd5e1" font-size="22">Paste Full Asset · Open Source · Favorite</text><rect width="600" height="94" x="330" y="425" fill="#151820" rx="18"/><text x="370" y="464" fill="#fff" font-size="26" font-weight="700">Prompt-to-Asset</text><text x="370" y="496" fill="#9ca3af" font-size="20">Generate app icons and favicons</text><rect width="600" height="94" x="330" y="545" fill="#151820" rx="18"/><text x="370" y="584" fill="#fff" font-size="26" font-weight="700">ContrastAPI MCP Server</text><text x="370" y="616" fill="#9ca3af" font-size="20">Security tools inside Claude</text></g></svg>